<svg xmlns="http://www.w3.org/2000/svg" shape-rendering="geometricPrecision" text-rendering="geometricPrecision" image-rendering="optimizeQuality" fill-rule="evenodd" clip-rule="evenodd" viewBox="0 0 512 446.65"><path d="M250.18.1c26.9-.84 52.72 3.71 76.4 12.65 24.62 9.3 46.96 23.38 65.83 41.11 18.88 17.73 34.32 39.15 45.14 63.12 10.4 23.06 16.55 48.54 17.4 75.47.61 19.72-1.67 38.88-6.45 56.99a196.6 196.6 0 0 1-18.76 46.3l79.57 81.45c3.65 3.76 3.58 9.78-.18 13.43l-54.81 53.34c-3.76 3.66-9.78 3.58-13.43-.18l-76.08-78.62a198.236 198.236 0 0 1-44.97 21.82c-18.01 6.06-37.24 9.63-57.24 10.25-17.03.53-33.63-1.1-49.53-4.63l.07-2.32v-39.04c15.29 4.33 31.5 6.41 48.22 5.9 21.42-.67 41.78-5.6 60.22-13.92 19.13-8.63 36.23-20.95 50.38-36.02 14.15-15.06 25.38-32.89 32.8-52.51 7.15-18.92 10.77-39.55 10.11-61-.67-21.45-5.59-41.78-13.91-60.21-8.63-19.14-20.97-36.24-36.03-50.4a158.776 158.776 0 0 0-52.51-32.79c-18.92-7.15-39.54-10.78-60.99-10.11-21.46.66-41.79 5.59-60.22 13.9a158.799 158.799 0 0 0-50.39 36.03c-14.15 15.07-25.38 32.91-32.81 52.53l-.98 2.67H64.96c1.6-5.72 3.44-11.34 5.52-16.84 9.3-24.62 23.38-46.97 41.1-65.83 17.73-18.88 39.14-34.33 63.12-45.14C197.76 7.09 223.26.94 250.18.1zm-80.76 390.18H86.46v-83.67L5.55 209.92c-8.29-10.33-7.96-20.82 5.53-20.89h230.17c13.63-.69 18.91 9.19 9.13 22.01l-80.96 95.57v83.67z"/></svg>